<mxfile host="app.diagrams.net" agent="Mozilla/5.0 (Windows NT 10.0; Win64; x64) AppleWebKit/537.36 (KHTML, like Gecko) Chrome/131.0.0.0 Safari/537.36" version="25.0.3">
  <diagram name="Page-1" id="1awcQCMkyWFa8zuUrcZW">
    <mxGraphModel dx="1930" dy="1020" grid="1" gridSize="10" guides="1" tooltips="1" connect="1" arrows="1" fold="1" page="1" pageScale="1" pageWidth="850" pageHeight="1100" math="0" shadow="0">
      <root>
        <mxCell id="0" />
        <mxCell id="1" parent="0" />
        <mxCell id="BEQ1sclxLFF9sdV0f1_m-20" value="" style="edgeStyle=orthogonalEdgeStyle;rounded=0;orthogonalLoop=1;jettySize=auto;html=1;" parent="1" source="BEQ1sclxLFF9sdV0f1_m-18" target="BEQ1sclxLFF9sdV0f1_m-19" edge="1">
          <mxGeometry relative="1" as="geometry" />
        </mxCell>
        <mxCell id="BEQ1sclxLFF9sdV0f1_m-18" value="เริ่ม" style="strokeWidth=2;html=1;shape=mxgraph.flowchart.start_1;whiteSpace=wrap;" parent="1" vertex="1">
          <mxGeometry x="630" y="8" width="100" height="60" as="geometry" />
        </mxCell>
        <mxCell id="BEQ1sclxLFF9sdV0f1_m-22" value="" style="edgeStyle=orthogonalEdgeStyle;rounded=0;orthogonalLoop=1;jettySize=auto;html=1;" parent="1" source="BEQ1sclxLFF9sdV0f1_m-19" target="BEQ1sclxLFF9sdV0f1_m-21" edge="1">
          <mxGeometry relative="1" as="geometry" />
        </mxCell>
        <mxCell id="BEQ1sclxLFF9sdV0f1_m-19" value="กำหนดตัวแรอาเรย์เดิม" style="whiteSpace=wrap;html=1;strokeWidth=2;" parent="1" vertex="1">
          <mxGeometry x="620" y="148" width="120" height="60" as="geometry" />
        </mxCell>
        <mxCell id="BEQ1sclxLFF9sdV0f1_m-24" value="" style="edgeStyle=orthogonalEdgeStyle;rounded=0;orthogonalLoop=1;jettySize=auto;html=1;" parent="1" source="BEQ1sclxLFF9sdV0f1_m-21" target="BEQ1sclxLFF9sdV0f1_m-23" edge="1">
          <mxGeometry relative="1" as="geometry" />
        </mxCell>
        <mxCell id="BEQ1sclxLFF9sdV0f1_m-21" value="กำหนดตัวแปร" style="whiteSpace=wrap;html=1;strokeWidth=2;" parent="1" vertex="1">
          <mxGeometry x="620" y="260" width="120" height="60" as="geometry" />
        </mxCell>
        <mxCell id="BEQ1sclxLFF9sdV0f1_m-28" value="" style="edgeStyle=orthogonalEdgeStyle;rounded=0;orthogonalLoop=1;jettySize=auto;html=1;" parent="1" source="BEQ1sclxLFF9sdV0f1_m-23" target="BEQ1sclxLFF9sdV0f1_m-27" edge="1">
          <mxGeometry relative="1" as="geometry" />
        </mxCell>
        <mxCell id="BEQ1sclxLFF9sdV0f1_m-23" value="รับจำนวนที่จะกรอกอาเรย์" style="shape=parallelogram;perimeter=parallelogramPerimeter;whiteSpace=wrap;html=1;fixedSize=1;strokeWidth=2;" parent="1" vertex="1">
          <mxGeometry x="620" y="400" width="120" height="60" as="geometry" />
        </mxCell>
        <mxCell id="BEQ1sclxLFF9sdV0f1_m-30" value="" style="edgeStyle=orthogonalEdgeStyle;rounded=0;orthogonalLoop=1;jettySize=auto;html=1;" parent="1" source="BEQ1sclxLFF9sdV0f1_m-34" target="BEQ1sclxLFF9sdV0f1_m-29" edge="1">
          <mxGeometry relative="1" as="geometry" />
        </mxCell>
        <mxCell id="BEQ1sclxLFF9sdV0f1_m-27" value="สร้างอาเรย์ใหม่แล้วเพิ่มขนาด" style="whiteSpace=wrap;html=1;strokeWidth=2;" parent="1" vertex="1">
          <mxGeometry x="620" y="540" width="120" height="60" as="geometry" />
        </mxCell>
        <mxCell id="BEQ1sclxLFF9sdV0f1_m-32" value="" style="edgeStyle=orthogonalEdgeStyle;rounded=0;orthogonalLoop=1;jettySize=auto;html=1;" parent="1" source="BEQ1sclxLFF9sdV0f1_m-29" target="BEQ1sclxLFF9sdV0f1_m-31" edge="1">
          <mxGeometry relative="1" as="geometry" />
        </mxCell>
        <mxCell id="BEQ1sclxLFF9sdV0f1_m-40" style="edgeStyle=orthogonalEdgeStyle;rounded=0;orthogonalLoop=1;jettySize=auto;html=1;entryX=0.5;entryY=0;entryDx=0;entryDy=0;entryPerimeter=0;" parent="1" source="BEQ1sclxLFF9sdV0f1_m-29" target="BEQ1sclxLFF9sdV0f1_m-45" edge="1">
          <mxGeometry relative="1" as="geometry">
            <mxPoint x="680" y="1040" as="targetPoint" />
            <Array as="points">
              <mxPoint x="781" y="735" />
              <mxPoint x="781" y="970" />
              <mxPoint x="680" y="970" />
            </Array>
          </mxGeometry>
        </mxCell>
        <mxCell id="BEQ1sclxLFF9sdV0f1_m-29" value="คัดลอกอาเรย์เก่าไปใหม่ครบไหม" style="rhombus;whiteSpace=wrap;html=1;strokeWidth=2;" parent="1" vertex="1">
          <mxGeometry x="610" y="670" width="140" height="130" as="geometry" />
        </mxCell>
        <mxCell id="BEQ1sclxLFF9sdV0f1_m-33" style="edgeStyle=orthogonalEdgeStyle;rounded=0;orthogonalLoop=1;jettySize=auto;html=1;exitX=0.5;exitY=1;exitDx=0;exitDy=0;entryX=0;entryY=0.5;entryDx=0;entryDy=0;entryPerimeter=0;" parent="1" source="BEQ1sclxLFF9sdV0f1_m-31" target="BEQ1sclxLFF9sdV0f1_m-34" edge="1">
          <mxGeometry relative="1" as="geometry">
            <mxPoint x="660" y="630" as="targetPoint" />
            <Array as="points">
              <mxPoint x="680" y="950" />
              <mxPoint x="561" y="950" />
              <mxPoint x="561" y="640" />
            </Array>
          </mxGeometry>
        </mxCell>
        <mxCell id="BEQ1sclxLFF9sdV0f1_m-31" value="ค้ดลอกอาเรย์" style="whiteSpace=wrap;html=1;strokeWidth=2;" parent="1" vertex="1">
          <mxGeometry x="620" y="851" width="120" height="60" as="geometry" />
        </mxCell>
        <mxCell id="BEQ1sclxLFF9sdV0f1_m-35" value="" style="edgeStyle=orthogonalEdgeStyle;rounded=0;orthogonalLoop=1;jettySize=auto;html=1;" parent="1" source="BEQ1sclxLFF9sdV0f1_m-27" target="BEQ1sclxLFF9sdV0f1_m-34" edge="1">
          <mxGeometry relative="1" as="geometry">
            <mxPoint x="680" y="600" as="sourcePoint" />
            <mxPoint x="680" y="670" as="targetPoint" />
          </mxGeometry>
        </mxCell>
        <mxCell id="BEQ1sclxLFF9sdV0f1_m-34" value="" style="verticalLabelPosition=bottom;verticalAlign=top;html=1;shape=mxgraph.flowchart.on-page_reference;" parent="1" vertex="1">
          <mxGeometry x="670" y="630" width="20" height="20" as="geometry" />
        </mxCell>
        <mxCell id="BEQ1sclxLFF9sdV0f1_m-38" value="ไม่ใช่" style="text;html=1;align=center;verticalAlign=middle;whiteSpace=wrap;rounded=0;" parent="1" vertex="1">
          <mxGeometry x="630" y="790" width="60" height="30" as="geometry" />
        </mxCell>
        <mxCell id="BEQ1sclxLFF9sdV0f1_m-39" value="ใช่" style="text;html=1;align=center;verticalAlign=middle;whiteSpace=wrap;rounded=0;" parent="1" vertex="1">
          <mxGeometry x="720" y="690" width="60" height="30" as="geometry" />
        </mxCell>
        <mxCell id="BEQ1sclxLFF9sdV0f1_m-43" value="" style="edgeStyle=orthogonalEdgeStyle;rounded=0;orthogonalLoop=1;jettySize=auto;html=1;" parent="1" source="BEQ1sclxLFF9sdV0f1_m-41" target="BEQ1sclxLFF9sdV0f1_m-42" edge="1">
          <mxGeometry relative="1" as="geometry" />
        </mxCell>
        <mxCell id="BEQ1sclxLFF9sdV0f1_m-50" style="edgeStyle=orthogonalEdgeStyle;rounded=0;orthogonalLoop=1;jettySize=auto;html=1;" parent="1" source="BEQ1sclxLFF9sdV0f1_m-41" edge="1">
          <mxGeometry relative="1" as="geometry">
            <mxPoint x="680" y="1450" as="targetPoint" />
            <Array as="points">
              <mxPoint x="771" y="1105" />
              <mxPoint x="771" y="1370" />
              <mxPoint x="680" y="1370" />
            </Array>
          </mxGeometry>
        </mxCell>
        <mxCell id="BEQ1sclxLFF9sdV0f1_m-41" value="กรอกค่าอาเรย์ใหม่ครบไหม" style="rhombus;whiteSpace=wrap;html=1;strokeWidth=2;" parent="1" vertex="1">
          <mxGeometry x="610" y="1040" width="140" height="130" as="geometry" />
        </mxCell>
        <mxCell id="BEQ1sclxLFF9sdV0f1_m-44" style="edgeStyle=orthogonalEdgeStyle;rounded=0;orthogonalLoop=1;jettySize=auto;html=1;entryX=0;entryY=0.5;entryDx=0;entryDy=0;entryPerimeter=0;" parent="1" source="BEQ1sclxLFF9sdV0f1_m-42" target="BEQ1sclxLFF9sdV0f1_m-45" edge="1">
          <mxGeometry relative="1" as="geometry">
            <mxPoint x="660" y="1010" as="targetPoint" />
            <Array as="points">
              <mxPoint x="680" y="1310" />
              <mxPoint x="681" y="1310" />
              <mxPoint x="681" y="1340" />
              <mxPoint x="570" y="1340" />
              <mxPoint x="570" y="1010" />
            </Array>
          </mxGeometry>
        </mxCell>
        <mxCell id="BEQ1sclxLFF9sdV0f1_m-42" value="กรอกค่าอาเรย์" style="shape=parallelogram;perimeter=parallelogramPerimeter;whiteSpace=wrap;html=1;fixedSize=1;strokeWidth=2;" parent="1" vertex="1">
          <mxGeometry x="620" y="1220" width="120" height="60" as="geometry" />
        </mxCell>
        <mxCell id="BEQ1sclxLFF9sdV0f1_m-46" value="" style="edgeStyle=orthogonalEdgeStyle;rounded=0;orthogonalLoop=1;jettySize=auto;html=1;" parent="1" source="BEQ1sclxLFF9sdV0f1_m-45" target="BEQ1sclxLFF9sdV0f1_m-41" edge="1">
          <mxGeometry relative="1" as="geometry" />
        </mxCell>
        <mxCell id="BEQ1sclxLFF9sdV0f1_m-45" value="" style="verticalLabelPosition=bottom;verticalAlign=top;html=1;shape=mxgraph.flowchart.on-page_reference;" parent="1" vertex="1">
          <mxGeometry x="670" y="1000" width="20" height="20" as="geometry" />
        </mxCell>
        <mxCell id="BEQ1sclxLFF9sdV0f1_m-47" value="ไม่ใช่" style="text;html=1;align=center;verticalAlign=middle;whiteSpace=wrap;rounded=0;" parent="1" vertex="1">
          <mxGeometry x="620" y="1160" width="60" height="30" as="geometry" />
        </mxCell>
        <mxCell id="BEQ1sclxLFF9sdV0f1_m-49" value="ใช่" style="text;html=1;align=center;verticalAlign=middle;whiteSpace=wrap;rounded=0;" parent="1" vertex="1">
          <mxGeometry x="730" y="1070" width="60" height="30" as="geometry" />
        </mxCell>
        <mxCell id="BEQ1sclxLFF9sdV0f1_m-52" value="" style="edgeStyle=orthogonalEdgeStyle;rounded=0;orthogonalLoop=1;jettySize=auto;html=1;" parent="1" source="BEQ1sclxLFF9sdV0f1_m-54" target="BEQ1sclxLFF9sdV0f1_m-57" edge="1">
          <mxGeometry relative="1" as="geometry" />
        </mxCell>
        <mxCell id="BEQ1sclxLFF9sdV0f1_m-53" style="edgeStyle=orthogonalEdgeStyle;rounded=0;orthogonalLoop=1;jettySize=auto;html=1;" parent="1" source="BEQ1sclxLFF9sdV0f1_m-54" edge="1">
          <mxGeometry relative="1" as="geometry">
            <mxPoint x="680" y="1866" as="targetPoint" />
            <Array as="points">
              <mxPoint x="791" y="1537" />
              <mxPoint x="791" y="1786" />
              <mxPoint x="680" y="1786" />
            </Array>
          </mxGeometry>
        </mxCell>
        <mxCell id="BEQ1sclxLFF9sdV0f1_m-54" value="เรียงลำดับอาเรย์จากน้อยไปมากเสร็จไหม" style="rhombus;whiteSpace=wrap;html=1;strokeWidth=2;" parent="1" vertex="1">
          <mxGeometry x="590" y="1451" width="180" height="171" as="geometry" />
        </mxCell>
        <mxCell id="BEQ1sclxLFF9sdV0f1_m-55" value="ไม่ใช่" style="text;html=1;align=center;verticalAlign=middle;whiteSpace=wrap;rounded=0;" parent="1" vertex="1">
          <mxGeometry x="610" y="1616" width="60" height="30" as="geometry" />
        </mxCell>
        <mxCell id="BEQ1sclxLFF9sdV0f1_m-56" value="ใช่" style="text;html=1;align=center;verticalAlign=middle;whiteSpace=wrap;rounded=0;" parent="1" vertex="1">
          <mxGeometry x="750" y="1486" width="60" height="30" as="geometry" />
        </mxCell>
        <mxCell id="BEQ1sclxLFF9sdV0f1_m-57" value="เรียงค่าอาเรย์" style="whiteSpace=wrap;html=1;strokeWidth=2;" parent="1" vertex="1">
          <mxGeometry x="620" y="1686" width="120" height="60" as="geometry" />
        </mxCell>
        <mxCell id="BEQ1sclxLFF9sdV0f1_m-62" value="" style="edgeStyle=orthogonalEdgeStyle;rounded=0;orthogonalLoop=1;jettySize=auto;html=1;" parent="1" source="BEQ1sclxLFF9sdV0f1_m-58" target="BEQ1sclxLFF9sdV0f1_m-61" edge="1">
          <mxGeometry relative="1" as="geometry" />
        </mxCell>
        <mxCell id="BEQ1sclxLFF9sdV0f1_m-58" value="แสดงค่าอาเรย์ที่เรียงแล้ว" style="shape=parallelogram;perimeter=parallelogramPerimeter;whiteSpace=wrap;html=1;fixedSize=1;strokeWidth=2;" parent="1" vertex="1">
          <mxGeometry x="620" y="1980" width="120" height="60" as="geometry" />
        </mxCell>
        <mxCell id="BEQ1sclxLFF9sdV0f1_m-60" value="" style="edgeStyle=orthogonalEdgeStyle;rounded=0;orthogonalLoop=1;jettySize=auto;html=1;" parent="1" source="BEQ1sclxLFF9sdV0f1_m-59" target="BEQ1sclxLFF9sdV0f1_m-58" edge="1">
          <mxGeometry relative="1" as="geometry" />
        </mxCell>
        <mxCell id="BEQ1sclxLFF9sdV0f1_m-59" value="แสดงค่าอาเรย์เก่า" style="shape=parallelogram;perimeter=parallelogramPerimeter;whiteSpace=wrap;html=1;fixedSize=1;strokeWidth=2;" parent="1" vertex="1">
          <mxGeometry x="620" y="1870" width="120" height="60" as="geometry" />
        </mxCell>
        <mxCell id="BEQ1sclxLFF9sdV0f1_m-61" value="จบ" style="strokeWidth=2;html=1;shape=mxgraph.flowchart.start_1;whiteSpace=wrap;" parent="1" vertex="1">
          <mxGeometry x="630" y="2090" width="100" height="60" as="geometry" />
        </mxCell>
      </root>
    </mxGraphModel>
  </diagram>
</mxfile>
